<svg width="100" height="100" viewBox="0 0 100 100" fill="none" xmlns="http://www.w3.org/2000/svg">
  <rect width="100" height="100" rx="24" fill="white"/>
  <path d="M50 75C50 75 25 60 25 40C25 28.9543 33.9543 20 45 20C47.7885 20 50.4192 20.5701 52.8 21.5979C52.9333 21.6548 53.0667 21.7144 53.2 21.7766C54.4 22.3166 55.5143 23.0142 56.5143 23.8571C57.5143 23.0142 58.6286 22.3166 59.8286 21.7766C59.9619 21.7144 60.0952 21.6548 60.2286 21.5979C62.6094 20.5701 65.2401 20 68.0286 20C79.0743 20 88.0286 28.9543 88.0286 40C88.0286 60 63.0286 75 63.0286 75H50Z" fill="#0EA5E9" fill-opacity="0.1"/>
  <path d="M50 70L46.5 66.5C34 55.1 26 47.9 26 39C26 31.7 31.7 26 39 26C43.1 26 47.1 27.9 49.7 30.9C52.3 27.9 56.3 26 60.4 26C67.7 26 73.4 31.7 73.4 39C73.4 47.9 65.4 55.1 52.9 66.5L50 70Z" fill="#0EA5E9"/>
  <path d="M35 40H45M50 35V45M55 40H65" stroke="white" stroke-width="4" stroke-linecap="round"/>
  <path d="M30 55C35 55 38 48 42 48C46 48 49 58 53 58C57 58 60 52 65 52" stroke="#EF4444" stroke-width="3" stroke-linecap="round" stroke-linejoin="round"/>
</svg>
